<svg version="1.1" xmlns="http://www.w3.org/2000/svg" xmlns:xlink="http://www.w3.org/1999/xlink" width="512.000000pt" height="512.000000pt" viewBox="0,0,256,256"><g fill="#c1d2d9" fill-rule="nonzero" stroke="none" stroke-width="1" stroke-linecap="butt" stroke-linejoin="miter" stroke-miterlimit="10" stroke-dasharray="" stroke-dashoffset="0" font-family="none" font-weight="none" font-size="none" text-anchor="none" style="mix-blend-mode: normal"><g transform="translate(-0.0139,-0.0859) scale(0.5,0.5)"><g transform="translate(0,512) scale(0.1,-0.1)"><path d="M1910,4624c-427,-47 -764,-217 -1049,-529c-173,-190 -300,-442 -362,-722c-22,-94 -23,-124 -26,-738c-5,-700 -1,-785 47,-968c27,-106 73,-232 89,-250c7,-7 86,17 103,32c4,4 -6,40 -23,81c-42,103 -75,237 -89,356c-8,68 -10,297 -7,739c3,610 5,644 25,732c65,283 190,515 382,711c215,218 471,355 785,419c82,16 152,18 780,18c679,0 692,0 791,-22c210,-47 370,-114 539,-227c107,-72 107,-72 146,-9l22,36l-24,19c-174,137 -416,246 -664,300c-96,20 -128,21 -765,23c-366,1 -681,1 -700,-1z"></path><path d="M4088,4176l-37,-43l46,-38l46,-39l33,40c19,21 34,42 34,45c0,8 -72,79 -80,79c-3,0 -22,-20 -42,-44z"></path><path d="M4232,4039c-23,-17 -42,-33 -42,-35c0,-3 31,-49 70,-102c120,-167 205,-363 247,-569c16,-79 18,-155 18,-778c0,-676 0,-692 -22,-787c-135,-594 -579,-1023 -1176,-1136c-82,-15 -167,-17 -777,-17c-673,0 -687,0 -786,22c-205,46 -362,111 -522,216c-197,130 -347,291 -478,513c-11,18 -13,18 -59,-6c-25,-14 -48,-28 -50,-31c-6,-9 62,-120 126,-205c233,-312 571,-523 966,-606c104,-21 131,-22 738,-26c691,-4 784,1 974,49c136,34 220,65 337,125c402,205 697,576 808,1014c44,173 48,268 44,955c-4,612 -5,644 -26,736c-47,209 -133,409 -241,566c-62,89 -96,133 -103,133c-2,0 -23,-14 -46,-31z"></path><path d="M1757,3893c-23,-6 -54,-68 -72,-145c-15,-64 -18,-227 -6,-283c5,-24 -1,-45 -31,-101c-77,-145 -113,-291 -112,-459c1,-211 56,-349 193,-486c74,-74 101,-94 191,-138c59,-29 145,-61 195,-73c50,-13 91,-23 92,-23c1,-1 -6,-23 -16,-50c-25,-65 -48,-79 -130,-79c-85,0 -133,24 -197,101c-123,149 -174,183 -269,183c-65,0 -106,-18 -123,-55c-18,-40 4,-79 78,-138c57,-46 71,-66 113,-150c53,-105 110,-173 176,-206c63,-33 148,-51 233,-51h78v-114v-114l-60,-52c-82,-71 -92,-123 -30,-155c37,-19 135,-19 189,0c40,14 41,14 41,-9c0,-28 32,-64 65,-72c60,-15 152,23 220,91l43,43l50,-48c54,-52 138,-90 198,-90c42,0 84,37 84,73v24l59,-15c76,-18 145,-9 177,23c44,44 26,88 -66,156c-34,26 -35,28 -42,120c-3,52 -7,151 -7,221c-1,152 -16,268 -41,326c-18,41 -18,42 -1,42c42,0 202,53 291,97c163,79 273,209 315,371c19,75 22,256 5,337c-11,51 -14,56 -33,51c-12,-3 -31,-6 -42,-6c-45,-1 -47,-10 -35,-116c38,-310 -115,-516 -446,-599c-50,-13 -120,-27 -155,-31c-65,-7 -109,-35 -109,-69c0,-9 22,-37 49,-63c30,-30 53,-62 61,-87c6,-22 16,-159 21,-304c7,-184 14,-274 24,-297c16,-39 7,-44 -21,-13c-17,19 -20,44 -25,243c-8,248 -16,293 -60,330c-38,32 -63,33 -94,1l-25,-24v-269c0,-209 3,-280 15,-318c19,-62 19,-61 -6,-38c-52,47 -54,60 -57,364c-4,326 -2,320 -83,320c-78,0 -76,8 -81,-312c-5,-303 -9,-330 -58,-373l-23,-20l7,25c5,14 10,160 13,325c5,285 4,301 -14,324c-40,49 -99,23 -137,-59c-18,-40 -21,-69 -24,-275c-4,-232 -6,-246 -43,-266c-17,-9 -17,-7 -4,26c21,49 21,353 1,381c-13,17 -27,19 -153,19c-131,0 -141,1 -196,28c-39,19 -66,42 -86,70c-29,43 -71,121 -71,132c0,4 23,-18 50,-48c77,-84 121,-102 255,-102c98,0 116,3 165,26c54,25 56,28 72,85c13,44 29,71 63,106c73,76 55,120 -55,132c-182,21 -365,95 -468,191c-74,68 -116,132 -150,227c-22,63 -26,89 -26,193c0,170 34,294 115,430l42,69l-12,61c-14,79 -14,189 0,256l11,51l44,-6c59,-8 160,-52 262,-114l83,-50l67,19c149,42 436,49 624,13l79,-15l77,45c95,55 206,103 260,112l41,6l12,-43c8,-30 10,-87 6,-176l-6,-132l38,-83c22,-46 52,-119 67,-163c15,-44 29,-82 30,-84c2,-2 16,1 31,7c15,6 40,16 55,21l28,10l-34,93c-18,51 -46,120 -62,153c-26,57 -27,66 -25,195c2,113 -1,145 -18,200c-12,36 -30,76 -40,90c-18,23 -26,25 -98,24c-88,-1 -182,-33 -308,-106l-70,-40l-80,11c-206,28 -469,22 -604,-14c-51,-13 -55,-13 -90,10c-151,95 -348,159 -424,138z"></path></g></g></g></svg>