<svg version="1.1" xmlns="http://www.w3.org/2000/svg" xmlns:xlink="http://www.w3.org/1999/xlink" width="512.000000pt" height="512.000000pt" viewBox="0,0,256,256"><g fill="#c1d2d9" fill-rule="nonzero" stroke="none" stroke-width="1" stroke-linecap="butt" stroke-linejoin="miter" stroke-miterlimit="10" stroke-dasharray="" stroke-dashoffset="0" font-family="none" font-weight="none" font-size="none" text-anchor="none" style="mix-blend-mode: normal"><g transform="translate(-0.0139,-0.0859) scale(0.5,0.5)"><g transform="translate(0,512) scale(0.1,-0.1)"><path d="M1910,4624c-427,-47 -764,-217 -1049,-529c-173,-190 -300,-442 -362,-722c-22,-94 -23,-124 -26,-738c-5,-700 -1,-785 47,-968c27,-106 73,-232 89,-250c7,-7 86,17 103,32c4,4 -6,40 -23,81c-42,103 -75,237 -89,356c-8,68 -10,297 -7,739c3,610 5,644 25,732c65,283 190,515 382,711c215,218 471,355 785,419c82,16 152,18 780,18c679,0 692,0 791,-22c210,-47 370,-114 539,-227c107,-72 107,-72 146,-9l22,36l-24,19c-174,137 -416,246 -664,300c-96,20 -128,21 -765,23c-366,1 -681,1 -700,-1z"></path><path d="M4088,4176l-37,-43l46,-38l46,-39l33,40c19,21 34,42 34,45c0,8 -72,79 -80,79c-3,0 -22,-20 -42,-44z"></path><path d="M4232,4039c-23,-17 -42,-33 -42,-35c0,-3 31,-49 70,-102c120,-167 205,-363 247,-569c16,-79 18,-155 18,-778c0,-676 0,-692 -22,-787c-135,-594 -579,-1023 -1176,-1136c-82,-15 -167,-17 -777,-17c-673,0 -687,0 -786,22c-205,46 -362,111 -522,216c-197,130 -347,291 -478,513c-11,18 -13,18 -59,-6c-25,-14 -48,-28 -50,-31c-6,-9 62,-120 126,-205c233,-312 571,-523 966,-606c104,-21 131,-22 738,-26c691,-4 784,1 974,49c136,34 220,65 337,125c402,205 697,576 808,1014c44,173 48,268 44,955c-4,612 -5,644 -26,736c-47,209 -133,409 -241,566c-62,89 -96,133 -103,133c-2,0 -23,-14 -46,-31z"></path><path d="M1635,3886c-193,-48 -339,-183 -406,-376c-22,-62 -23,-81 -27,-432l-4,-368h61h61v318c0,174 5,346 10,382c23,143 115,264 250,329l75,36h906h905l77,-38c136,-67 224,-184 247,-327c13,-88 13,-1612 0,-1700c-23,-142 -112,-260 -249,-328l-75,-37h-906h-906l-75,37c-137,68 -226,186 -249,328c-5,37 -10,252 -10,493v428l-57,-3l-58,-3v-475c0,-470 1,-476 23,-540c70,-197 227,-338 420,-379c37,-8 316,-11 915,-11c955,0 930,-1 1057,66c123,65 225,187 271,325l24,74v875v875l-24,73c-45,138 -148,261 -271,326c-128,67 -101,66 -1065,65c-659,-1 -882,-4 -920,-13z"></path><path d="M3076,3578c-13,-19 -16,-61 -16,-253c0,-192 3,-234 16,-253c15,-22 18,-22 263,-22c227,0 249,2 264,18c15,16 17,49 17,259c0,220 -2,241 -18,256c-16,15 -50,17 -265,17c-243,0 -246,0 -261,-22zM3500,3325v-155h-160h-160v155v155h160h160z"></path><path d="M2413,3051c-127,-37 -263,-150 -318,-266c-28,-61 -55,-168 -55,-225c0,-57 27,-164 55,-225c34,-71 126,-170 199,-214c111,-67 272,-89 401,-56c252,66 424,335 373,585c-24,114 -62,185 -142,265c-78,78 -143,117 -231,140c-78,20 -204,18 -282,-4zM2723,2918c117,-54 205,-168 229,-296c31,-165 -67,-344 -229,-420c-52,-24 -70,-27 -163,-27c-99,0 -110,2 -172,33c-85,41 -167,128 -199,209c-31,81 -32,205 0,285c39,101 146,199 254,234c70,23 210,14 280,-18z"></path><path d="M1469,2863c-12,-13 -14,-116 -14,-577c0,-653 -3,-630 94,-727c90,-90 86,-89 558,-89h404l-3,58l-3,57l-405,5c-282,3 -411,9 -425,17c-26,15 -69,61 -86,93c-11,20 -15,127 -17,543l-3,517h127c116,0 126,-1 119,-17c-20,-53 -28,-186 -17,-273c40,-298 233,-532 522,-632c90,-31 102,-32 240,-32c138,0 150,1 240,32c302,105 500,357 526,671c6,68 -6,193 -22,235c-5,14 9,16 120,16h127l-3,-517c-3,-460 -5,-521 -20,-548c-22,-40 -66,-81 -101,-94c-18,-7 -171,-11 -433,-11h-404v-60v-60h413c483,0 478,-1 568,89c97,97 93,70 96,711c3,439 1,560 -10,580l-13,25l-228,3c-160,2 -233,-1 -242,-9c-20,-16 -17,-54 8,-129c17,-51 21,-90 22,-180c0,-100 -4,-125 -28,-195c-71,-204 -224,-354 -426,-417c-107,-33 -273,-33 -380,0c-100,31 -191,86 -267,161c-76,76 -123,151 -159,256c-24,70 -28,95 -28,195c1,90 5,129 22,180c25,74 27,111 10,128c-9,9 -76,12 -239,12c-199,0 -228,-2 -240,-17z"></path></g></g></g></svg>