<svg version="1.1" xmlns="http://www.w3.org/2000/svg" xmlns:xlink="http://www.w3.org/1999/xlink" width="512.000000pt" height="512.000000pt" viewBox="0,0,256,256"><g fill="#c1d2d9" fill-rule="nonzero" stroke="none" stroke-width="1" stroke-linecap="butt" stroke-linejoin="miter" stroke-miterlimit="10" stroke-dasharray="" stroke-dashoffset="0" font-family="none" font-weight="none" font-size="none" text-anchor="none" style="mix-blend-mode: normal"><g transform="translate(-0.0139,-0.0859) scale(0.5,0.5)"><g transform="translate(0,512) scale(0.1,-0.1)"><path d="M1910,4624c-427,-47 -764,-217 -1049,-529c-173,-190 -300,-442 -362,-722c-22,-94 -23,-124 -26,-738c-5,-700 -1,-785 47,-968c27,-106 73,-232 89,-250c7,-7 86,17 103,32c4,4 -6,40 -23,81c-42,103 -75,237 -89,356c-8,68 -10,297 -7,739c3,610 5,644 25,732c65,283 190,515 382,711c215,218 471,355 785,419c82,16 152,18 780,18c679,0 692,0 791,-22c210,-47 370,-114 539,-227c107,-72 107,-72 146,-9l22,36l-24,19c-174,137 -416,246 -664,300c-96,20 -128,21 -765,23c-366,1 -681,1 -700,-1z"></path><path d="M4088,4176l-37,-43l46,-38l46,-39l33,40c19,21 34,42 34,45c0,8 -72,79 -80,79c-3,0 -22,-20 -42,-44z"></path><path d="M4232,4039c-23,-17 -42,-33 -42,-35c0,-3 31,-49 70,-102c120,-167 205,-363 247,-569c16,-79 18,-155 18,-778c0,-676 0,-692 -22,-787c-135,-594 -579,-1023 -1176,-1136c-82,-15 -167,-17 -777,-17c-673,0 -687,0 -786,22c-205,46 -362,111 -522,216c-197,130 -347,291 -478,513c-11,18 -13,18 -59,-6c-25,-14 -48,-28 -50,-31c-6,-9 62,-120 126,-205c233,-312 571,-523 966,-606c104,-21 131,-22 738,-26c691,-4 784,1 974,49c136,34 220,65 337,125c402,205 697,576 808,1014c44,173 48,268 44,955c-4,612 -5,644 -26,736c-47,209 -133,409 -241,566c-62,89 -96,133 -103,133c-2,0 -23,-14 -46,-31z"></path><path d="M1459,3885c-249,-80 -333,-388 -158,-580c190,-208 527,-131 610,139c51,162 -27,338 -186,419c-49,25 -74,31 -140,34c-52,2 -96,-3 -126,-12zM1641,3768c22,-6 57,-27 79,-46c132,-112 112,-304 -41,-386c-156,-86 -350,27 -352,204c-1,162 155,276 314,228z"></path><path d="M1229,3031l-24,-19v-882c0,-861 0,-882 19,-896c16,-11 80,-14 347,-14c327,0 328,0 343,22c14,20 16,121 16,895c0,860 0,873 -20,893c-19,19 -33,20 -339,20c-299,0 -320,-1 -342,-19zM1810,2135v-795h-245h-245v788c0,434 3,792 7,795c3,4 114,7 245,7h238z"></path><path d="M2179,3031l-24,-19v-734v-733l57,-3l58,-3l2,693l3,693l178,3l177,2v-98c0,-111 11,-132 67,-132c26,0 37,9 66,49c89,123 228,176 462,175c263,-2 417,-78 496,-247c68,-147 75,-240 71,-869l-3,-468h-200h-199v443c-1,477 -7,549 -53,650c-33,74 -79,121 -145,154c-52,25 -67,28 -163,28c-101,0 -109,-2 -175,-35c-80,-41 -131,-101 -166,-195c-22,-58 -22,-72 -26,-552l-3,-493h-195h-194v60v60h-61h-61l4,-106c3,-90 6,-108 23,-120c28,-21 552,-20 581,0c18,14 19,34 24,543c5,466 7,533 23,571c43,111 99,147 227,147c97,0 139,-18 178,-75c55,-81 56,-94 60,-650c3,-453 5,-517 19,-532c15,-16 42,-18 304,-18c288,0 289,0 303,23c23,34 25,1144 2,1269c-61,336 -233,494 -577,529c-196,20 -399,-18 -516,-95l-53,-35v50c0,36 -5,54 -20,69c-19,19 -33,20 -274,20c-235,0 -256,-1 -277,-19z"></path></g></g></g></svg>