<svg version="1.1" xmlns="http://www.w3.org/2000/svg" xmlns:xlink="http://www.w3.org/1999/xlink" width="512.000000pt" height="512.000000pt" viewBox="0,0,256,256"><g fill="#c1d2d9" fill-rule="nonzero" stroke="none" stroke-width="1" stroke-linecap="butt" stroke-linejoin="miter" stroke-miterlimit="10" stroke-dasharray="" stroke-dashoffset="0" font-family="none" font-weight="none" font-size="none" text-anchor="none" style="mix-blend-mode: normal"><g transform="translate(-0.0139,-0.0859) scale(0.5,0.5)"><g transform="translate(0,512) scale(0.1,-0.1)"><path d="M1910,4624c-427,-47 -764,-217 -1049,-529c-173,-190 -300,-442 -362,-722c-22,-94 -23,-124 -26,-738c-5,-700 -1,-785 47,-968c27,-106 73,-232 89,-250c7,-7 86,17 103,32c4,4 -6,40 -23,81c-42,103 -75,237 -89,356c-8,68 -10,297 -7,739c3,610 5,644 25,732c65,283 190,515 382,711c215,218 471,355 785,419c82,16 152,18 780,18c679,0 692,0 791,-22c210,-47 370,-114 539,-227c107,-72 107,-72 146,-9l22,36l-24,19c-174,137 -416,246 -664,300c-96,20 -128,21 -765,23c-366,1 -681,1 -700,-1z"></path><path d="M4088,4176l-37,-43l46,-38l46,-39l33,40c19,21 34,42 34,45c0,8 -72,79 -80,79c-3,0 -22,-20 -42,-44z"></path><path d="M4232,4039c-23,-17 -42,-33 -42,-35c0,-3 31,-49 70,-102c120,-167 205,-363 247,-569c16,-79 18,-155 18,-778c0,-676 0,-692 -22,-787c-135,-594 -579,-1023 -1176,-1136c-82,-15 -167,-17 -777,-17c-673,0 -687,0 -786,22c-205,46 -362,111 -522,216c-197,130 -347,291 -478,513c-11,18 -13,18 -59,-6c-25,-14 -48,-28 -50,-31c-6,-9 62,-120 126,-205c233,-312 571,-523 966,-606c104,-21 131,-22 738,-26c691,-4 784,1 974,49c136,34 220,65 337,125c402,205 697,576 808,1014c44,173 48,268 44,955c-4,612 -5,644 -26,736c-47,209 -133,409 -241,566c-62,89 -96,133 -103,133c-2,0 -23,-14 -46,-31z"></path><path d="M3670,3680c-41,-16 -327,-123 -635,-239c-1060,-397 -1730,-651 -1755,-665c-86,-48 -93,-189 -12,-242c14,-9 156,-58 315,-108l289,-91l118,-358c65,-196 125,-368 134,-382c34,-51 132,-74 189,-43c14,7 95,79 180,161c86,81 159,147 164,147c5,0 24,20 41,44c29,41 30,44 14,58c-29,26 -62,39 -82,33c-10,-3 -96,-80 -192,-170c-114,-109 -180,-165 -195,-165c-20,0 -32,31 -144,373c-67,204 -130,380 -138,389c-9,9 -133,53 -276,98c-143,45 -278,87 -299,94c-43,13 -67,39 -51,54c6,5 282,112 615,237c333,125 879,331 1214,457c434,163 612,226 620,218c8,-8 -7,-99 -51,-318c-95,-475 -342,-1653 -354,-1689c-10,-32 -26,-43 -59,-43c-10,0 -122,77 -250,171c-128,93 -242,177 -254,185c-21,13 -24,12 -56,-32c-27,-39 -30,-48 -19,-59c36,-34 486,-359 515,-371c83,-35 182,0 221,77c31,60 433,1982 433,2069c0,46 -33,97 -80,121c-46,25 -71,23 -160,-11z"></path><path d="M3145,3210c-760,-487 -1135,-733 -1140,-750c-9,-27 181,-651 202,-667c9,-7 27,-13 38,-13c45,0 54,26 75,226c11,103 24,191 28,195c60,53 872,796 970,887c117,110 132,128 132,157c0,46 -27,75 -75,81c-37,5 -52,-3 -230,-116zM3015,2971c-11,-10 -182,-166 -380,-346c-198,-180 -372,-340 -387,-356c-21,-22 -28,-39 -28,-71c0,-23 -3,-38 -7,-34c-4,4 -24,62 -44,129c-26,86 -33,124 -25,129c6,4 207,133 446,287c239,154 437,281 440,281c2,0 -4,-8 -15,-19z"></path></g></g></g></svg>