<svg version="1.1" xmlns="http://www.w3.org/2000/svg" xmlns:xlink="http://www.w3.org/1999/xlink" width="512.000000pt" height="512.000000pt" viewBox="0,0,256,256"><g fill="#c1d2d9" fill-rule="nonzero" stroke="none" stroke-width="1" stroke-linecap="butt" stroke-linejoin="miter" stroke-miterlimit="10" stroke-dasharray="" stroke-dashoffset="0" font-family="none" font-weight="none" font-size="none" text-anchor="none" style="mix-blend-mode: normal"><g transform="translate(-3,0.91239) scale(0.5,0.5)"><g transform="translate(0,512) scale(0.1,-0.1)"><path d="M1937,4640c-647,-78 -1176,-524 -1346,-1135c-55,-195 -56,-216 -56,-935c0,-596 2,-675 18,-757c30,-158 100,-372 124,-380c6,-2 31,6 57,17c39,16 47,24 40,38c-29,68 -85,254 -100,337c-17,91 -19,159 -19,755c0,597 2,664 19,755c53,283 178,531 370,732c213,224 466,365 771,432l120,26h690c684,0 691,0 795,-23c208,-46 376,-117 543,-229c54,-36 99,-64 100,-62c2,2 18,23 36,46l32,42l-68,50c-185,136 -401,228 -653,277c-73,15 -175,17 -745,19c-363,2 -691,-1 -728,-5z"></path><path d="M4155,4200l-39,-40l42,-43l42,-42l42,42l42,43l-39,40c-21,22 -42,40 -45,40c-3,0 -24,-18 -45,-40z"></path><path d="M4319,4077c-8,-7 -28,-22 -43,-34l-27,-22l54,-71c145,-190 246,-435 277,-672c8,-56 10,-300 7,-753c-3,-640 -4,-674 -25,-756c-69,-286 -194,-511 -392,-709c-204,-204 -450,-338 -743,-402c-101,-23 -112,-23 -802,-23c-690,0 -701,0 -802,23c-288,63 -524,187 -724,379c-96,93 -199,220 -254,316c-15,26 -29,47 -32,47c-3,0 -27,-12 -54,-27l-49,-26l27,-46c67,-116 137,-206 253,-322c232,-233 491,-373 817,-441c104,-21 131,-22 748,-26c448,-3 673,0 750,8c475,51 900,311 1158,710c105,163 173,329 219,532c23,102 23,107 23,818c0,705 0,716 -22,816c-31,139 -85,291 -144,404c-49,93 -176,281 -195,287c-5,1 -16,-3 -25,-10z"></path><path d="M3058,3658c-179,-17 -338,-115 -439,-271c-52,-80 -80,-166 -86,-269c-4,-64 -9,-88 -19,-88c-38,0 -223,42 -303,69c-236,79 -484,240 -626,407c-41,48 -52,55 -78,52c-88,-9 -154,-267 -113,-441c9,-37 29,-93 45,-125l29,-58l-29,4c-20,3 -37,-2 -51,-14c-18,-17 -20,-26 -14,-92c11,-138 75,-273 172,-368l45,-43l-21,-21c-28,-28 -26,-46 17,-131c53,-107 161,-213 272,-267l83,-40l-38,-20c-137,-69 -298,-103 -477,-101c-140,1 -157,-4 -157,-52c0,-42 26,-62 163,-128c275,-133 552,-186 841,-161c575,49 1025,351 1272,855c101,206 150,390 161,598l6,108l121,122c142,143 157,166 135,205c-12,23 -21,27 -54,26c-22,-1 -49,-4 -61,-8c-19,-7 -17,1 19,74c34,67 39,85 31,108c-17,48 -49,49 -144,4c-47,-22 -117,-50 -156,-62l-72,-23l-43,35c-114,92 -265,133 -431,116zM3323,3502c34,-16 83,-47 109,-70c26,-22 56,-43 66,-46c10,-4 58,5 107,19c48,14 90,24 92,21c2,-2 -27,-30 -66,-61c-57,-46 -71,-63 -71,-85c0,-44 31,-64 86,-55c26,3 54,9 63,12c16,5 -10,-21 -81,-82l-35,-30l-6,-145c-17,-369 -157,-690 -417,-951c-212,-214 -469,-344 -780,-396c-128,-21 -366,-21 -490,1c-95,16 -288,71 -303,85c-5,5 15,11 43,15c201,27 530,190 530,263c0,39 -27,63 -69,63c-110,0 -244,64 -333,159l-62,66l84,13c92,14 120,31 120,72c0,36 -13,45 -91,69c-148,46 -272,173 -314,320c-7,22 -5,23 16,17c13,-4 58,-10 99,-13c63,-5 79,-3 93,11c25,26 21,64 -10,89c-63,51 -130,126 -152,170c-49,100 -64,218 -40,312l11,44l92,-80c260,-227 554,-357 904,-399c82,-10 96,-10 118,5c25,16 25,17 18,120c-6,89 -4,112 15,173c54,180 210,309 396,330c91,11 188,-3 258,-36z"></path></g></g></g></svg>